<svg xmlns="http://www.w3.org/2000/svg" xmlns:xlink="http://www.w3.org/1999/xlink" width="17" height="17" viewBox="0 0 17 17"><defs><path id="a" d="M355.4 9536.33a3.17 3.17 0 0 1-3.16 3.17h-7.57a3.17 3.17 0 0 1-3.17-3.17v-7.57a3.17 3.17 0 0 1 3.17-3.17h7.57a3.17 3.17 0 0 1 3.17 3.17zm-3.16-12.24h-7.57a4.67 4.67 0 0 0-4.67 4.67v7.57c0 2.58 2.1 4.67 4.67 4.67h7.57c2.57 0 4.67-2.1 4.67-4.67v-7.57c0-2.57-2.1-4.67-4.67-4.67z"/><path id="b" d="M348.45 9535.4a2.86 2.86 0 1 1 0-5.72 2.86 2.86 0 0 1 0 5.72zm4.54-8.48a1.1 1.1 0 0 0-1.1 1.1 1.1 1.1 0 0 0 1.1 1.1c.3 0 .58-.12.78-.32a1.1 1.1 0 0 0 0-1.56 1.1 1.1 0 0 0-.78-.32zm-4.54 1.27a4.36 4.36 0 1 0 .01 8.72 4.36 4.36 0 0 0 0-8.72z"/></defs><use xlink:href="#a" transform="translate(-340 -9524)"/><use xlink:href="#b" transform="translate(-340 -9524)"/></svg>