<svg xmlns="http://www.w3.org/2000/svg" width="133" height="214" viewBox="0 0 133 214"><g fill="none"><path fill="#2E2A25" d="M104.437 175.547c-10.383 0-18.799-8.369-18.799-18.693 0-10.324 8.416-18.693 18.799-18.693a18.773 18.773 0 0 1 13.514 5.719l4.383-4.385a24.852 24.852 0 0 0-17.703-7.369c-9.533 0-17.793 5.262-21.967 13.092a24.824 24.824 0 0 0-8.678-9.316 24.647 24.647 0 0 0-13.147-3.785c-4.734 0-9.329 1.34-13.295 3.873a24.735 24.735 0 0 0-8.69 9.521 24.106 24.106 0 0 0-8.407-8.992 23.92 23.92 0 0 0-12.744-3.662l-17.014.014v47.971l17.014.006c4.526 0 8.932-1.266 12.744-3.658a24.14 24.14 0 0 0 8.407-8.994 24.74 24.74 0 0 0 8.69 9.518 24.597 24.597 0 0 0 13.295 3.875c3.941 0 12.663-1.527 17.503-7.316l.184-.219-4.346-4.162s-.961 1.004-2.314 2.025c-3.189 2.406-7.046 3.633-11.026 3.633-4.53 0-8.895-1.641-12.299-4.623a18.704 18.704 0 0 1-6.137-11.078H79.94l.008-.047c1.465 12.268 11.953 21.783 24.684 21.783a24.854 24.854 0 0 0 17.615-7.277l-4.381-4.381a18.8 18.8 0 0 1-13.429 5.62zm-86.736-.574c-.037 0-7.072-.006-11.027-.012V138.74c3.955-.006 10.99-.008 11.027-.008 9.994 0 18.122 8.129 18.122 18.121 0 9.989-8.128 18.12-18.122 18.12zm24.701-21.116a18.694 18.694 0 0 1 6.137-11.076 18.651 18.651 0 0 1 12.299-4.623c4.523 0 8.894 1.641 12.292 4.623a18.691 18.691 0 0 1 6.139 11.076H42.402zm90.191-16.3c0 1.113-.396 2.062-1.186 2.846-.779.791-1.732 1.184-2.844 1.184-1.109 0-2.059-.393-2.848-1.184-.785-.783-1.178-1.732-1.178-2.846 0-1.109.393-2.059 1.178-2.846.789-.783 1.738-1.18 2.848-1.18 1.111 0 2.064.396 2.844 1.18.789.787 1.186 1.736 1.186 2.846zm-.891 0c0-.863-.307-1.607-.918-2.229-.615-.621-1.352-.934-2.221-.934-.865 0-1.604.312-2.217.934a3.052 3.052 0 0 0-.916 2.229c0 .867.301 1.611.916 2.23.576.607 1.38.945 2.217.932.869 0 1.605-.309 2.221-.932a3.06 3.06 0 0 0 .918-2.23zm-.957 1.912h-1.223l-1.164-1.473h-.383v1.473h-.945v-4.008h1.461c.266 0 .484.008.648.031.168.021.326.076.492.168.176.104.311.227.389.371.078.144.121.324.121.547 0 .295-.08.537-.238.725a1.614 1.614 0 0 1-.615.436l1.457 1.73zm-1.66-2.819a.428.428 0 0 0-.225-.403.696.696 0 0 0-.242-.078 2.637 2.637 0 0 0-.342-.018h-.301v1.129h.232c.139 0 .271-.01.391-.033a.615.615 0 0 0 .289-.119.422.422 0 0 0 .146-.191.64.64 0 0 0 .052-.287zm-95.366 66.793l-.15.188c-.848 1.055-1.773 1.525-3.005 1.525-2.011 0-3.095-1.637-3.095-3.178 0-1.781 1.398-3.176 3.184-3.176 1.107 0 2.014.473 2.854 1.488l.195.182h.734v-3.006l-.219-.148a6.286 6.286 0 0 0-3.498-1.08c-3.404 0-6.069 2.521-6.069 5.74 0 3.273 2.6 5.74 6.047 5.74 1.278 0 2.414-.346 3.576-1.092l.229-.148v-2.535l-.044-.5h-.739zm18.045-6.148a5.106 5.106 0 0 0-3.117-1.057c-3.195 0-5.515 2.424-5.515 5.762 0 3.26 2.361 5.719 5.492 5.719 1.196 0 2.263-.348 3.14-1.018v.744h2.774v-10.932h-2.774v.782zm-2.896 7.861c-2.005 0-2.917-1.701-2.917-3.283 0-1.488 1.015-3.07 2.895-3.07 2.076 0 3.006 1.553 3.006 3.092 0 1.503-.782 3.261-2.984 3.261zm26.559-8.918c-1.268 0-2.385.471-3.119 1.285-.695-.807-1.748-1.285-2.895-1.285-.756 0-1.463.234-2.051.664v-.389h-2.774v10.932h2.774v-5.635c0-2.109.541-3.008 1.807-3.008.676 0 1.365.297 1.365 2.5v6.143h2.773v-5.762c0-2.047.512-2.881 1.764-2.881 1.191 0 1.408.799 1.408 2.373v6.27h2.775v-6.543c.001-3.007-1.358-4.664-3.827-4.664zm19.791 0c-1.189 0-2.271.361-3.139 1.037v-.762h-2.775v16.51h2.775v-6.326c.861.658 1.949 1.021 3.117 1.021 3.195 0 5.514-2.404 5.514-5.719 0-2.792-1.924-5.761-5.492-5.761zm2.674 5.657c0 1.504-.781 3.262-2.984 3.262-2.004 0-2.916-1.701-2.916-3.283 0-1.488 1.014-3.07 2.895-3.07 2.075-.001 3.005 1.551 3.005 3.091z"/><g fill="#2E2A25"><path d="M49.062 79.149c5.266-2.442 7.32-8.196 3.534-13.107-3.977 1.845-7.6 6.636-3.534 13.107zm24.318 0c4.064-6.471.443-11.262-3.533-13.107-3.786 4.911-1.733 10.665 3.533 13.107z"/><path d="M110.749 42.026c-3.611-4.88-9.623-9.209-15.453-10.941-7.914-2.354-16.574-3.241-24.754-1.989-1.162.178-4.873.689-7.354 1.604-.12-1.748-.125-5.757.123-6.938.805-3.82 4.868-7.68 10.208-11.158l-2.486-3.306c-4.794 3.122-8.177 6.536-10.125 10.191C57.612 6.602 48.242 1.318 36.926.222c-.511 13.285 8.712 24.56 22.103 26.082a70.826 70.826 0 0 0-.055 4.584c-2.453-1.034-6.601-1.604-7.841-1.793-8.18-1.252-16.839-.365-24.755 1.989-5.83 1.732-11.842 6.062-15.452 10.941C5.732 49.047 4.79 57.628 4.734 66.11c-.113 17.161 7.553 35.484 20.303 47.057 6.149 5.582 14.01 9.713 22.467 9.779 1.457.012 13.336-.408 13.336-2.051 0 1.643 11.876 2.062 13.333 2.051 8.457-.066 16.318-4.197 22.467-9.779 12.752-11.573 20.416-29.896 20.303-47.057-.059-8.482-1.001-17.062-6.194-24.084zM60.43 89.496c-1.244.416-2.557.65-3.922.65-.211.015-.42.021-.631.021-8.498 0-15.867-12.006-14.98-21.73 0-3.525 1.087-6.105 2.883-7.948 1.273-1.084 2.703-2.09 4.116-2.644l.011-.006c.084-.027 2.983-.992 6.514-.992 1.935 0 4.057.297 6.01 1.188v31.461h-.001zm0-34.961c-1.814-.624-3.821-.952-6.009-.952-3.991 0-7.204 1.046-7.558 1.165l-.212.07-.083.041c-1.531.621-3.187 1.682-4.904 3.145l-.116.098-.105.109c-2.499 2.562-3.779 5.953-3.81 10.078-.559 6.666 2.125 14.297 6.861 19.485 3.332 3.649 7.375 5.658 11.383 5.658.247 0 .496-.007.742-.022 1.29-.01 2.564-.186 3.811-.51v14.174c-1.435.846-1.918 5.338-3.988 7.406-1.596 1.596-2.868 2.234-3.479 2.475-25.162 3.379-42.5-27.814-42.461-50.495.01-5.779.303-11.842 2.788-17.152 2.72-5.811 8.23-10.167 14.139-12.506 10.624-3.438 22.893-3.699 33.001 1.344v16.389zm.816 3.5c1.954-.891 4.074-1.188 6.007-1.188 3.531 0 6.432.965 6.514.992l.012.006c1.414.554 2.844 1.56 4.117 2.644 1.795 1.843 2.881 4.423 2.881 7.948.887 9.725-6.48 21.73-14.979 21.73-.21 0-.42-.007-.63-.021-1.365 0-2.678-.234-3.922-.65V58.035zm7.394 58.912c-.617-.248-1.879-.889-3.457-2.467-2.044-2.043-2.542-6.445-3.937-7.371V92.901c1.246.323 2.52.499 3.81.509.247.015.495.022.742.022 4.01 0 8.051-2.01 11.383-5.659 4.734-5.188 7.418-12.818 6.861-19.484-.031-4.125-1.312-7.514-3.809-10.078l-.107-.109-.115-.099c-1.711-1.455-3.357-2.51-4.895-3.138l-.004-.002-.135-.055-.086-.033-.086-.029c-.355-.119-3.582-1.163-7.553-1.163-2.187 0-4.192.328-6.007.951V38.145c10.106-5.042 22.374-4.78 32.999-1.343 5.908 2.339 11.418 6.695 14.139 12.506 2.484 5.311 2.777 11.373 2.787 17.152.04 22.702-17.331 53.935-42.53 50.487z"/></g><path fill="#F46178" d="M55.878 93.432c-4.008 0-8.051-2.009-11.383-5.658-4.736-5.188-7.42-12.819-6.861-19.485.03-4.125 1.311-7.516 3.81-10.078l.105-.109.116-.098c1.718-1.463 3.373-2.523 4.904-3.145l.083-.041.212-.07c.354-.119 3.566-1.165 7.558-1.165 2.188 0 4.194.328 6.009.952V38.146c-10.108-5.043-22.377-4.781-33.001-1.344-5.908 2.339-11.42 6.695-14.139 12.506-2.486 5.311-2.779 11.373-2.789 17.152-.038 22.681 17.3 53.874 42.461 50.495.611-.24 1.884-.879 3.479-2.475 2.07-2.068 2.555-6.561 3.989-7.406V92.9c-1.246.324-2.521.5-3.811.51a12.23 12.23 0 0 1-.742.022z"/><path fill="#D60057" d="M108.384 49.308c-2.719-5.811-8.23-10.167-14.139-12.506-10.623-3.438-22.891-3.699-32.999 1.343v16.389h.001c1.814-.623 3.82-.951 6.008-.951 3.971 0 7.197 1.044 7.553 1.163l.086.029.086.033.135.055.004.002c1.537.628 3.184 1.683 4.895 3.138l.115.099.107.109c2.496 2.564 3.777 5.953 3.809 10.078.557 6.666-2.127 14.297-6.861 19.484-3.332 3.649-7.373 5.659-11.384 5.659-.247 0-.495-.008-.742-.022a15.648 15.648 0 0 1-3.81-.509h-.001v14.208c1.395.926 1.893 5.328 3.938 7.371 1.577 1.578 2.839 2.219 3.456 2.467 25.201 3.447 42.57-27.786 42.533-50.487-.011-5.779-.304-11.841-2.79-17.152z"/></g></svg>