<svg xmlns="http://www.w3.org/2000/svg" xmlns:xlink="http://www.w3.org/1999/xlink" width="160" height="123" viewBox="0 0 160 123"><defs><path id="a" d="M640 8098a10 10 0 0 1 10-10h140a10 10 0 0 1 10 10v87a10 10 0 0 1-10 10H650a10 10 0 0 1-10-10z"/><path id="b" d="M660 8075.5a3.5 3.5 0 1 1 7 0v16a3.5 3.5 0 1 1-7 0z"/><path id="c" d="M773 8075.5a3.5 3.5 0 1 1 7 0v16a3.5 3.5 0 1 1-7 0z"/><path id="d" d="M717 8075.5a3.5 3.5 0 1 1 7 0v16a3.5 3.5 0 1 1-7 0z"/></defs><use fill="#f7f4f2" xlink:href="#a" transform="translate(-640 -8072)"/><use fill="#f7f4f2" xlink:href="#b" transform="translate(-640 -8072)"/><use fill="#f7f4f2" xlink:href="#c" transform="translate(-640 -8072)"/><use fill="#f7f4f2" xlink:href="#d" transform="translate(-640 -8072)"/></svg>