<svg xmlns="http://www.w3.org/2000/svg" xmlns:xlink="http://www.w3.org/1999/xlink" width="67" height="67" viewBox="0 0 67 67"><defs><path id="a" d="M908 7231.5a33.5 33.5 0 1 1 67 0 33.5 33.5 0 0 1-67 0z"/><path id="b" d="M950.65 7234.43l-14.1 8.71c-1.22.75-2.69.14-3.3-1.35a3.61 3.61 0 0 1-.25-1.35v-17.42c0-1.67 1.1-3.02 2.45-3.02.38 0 .75.1 1.1.32l14.1 8.7c1.2.75 1.7 2.57 1.1 4.06a2.8 2.8 0 0 1-1.1 1.35z"/></defs><use fill="#cb2158" xlink:href="#a" transform="translate(-908 -7198)"/><use fill="#fff" fill-opacity="0" stroke="#fff" stroke-miterlimit="50" stroke-width="2" xlink:href="#b" transform="translate(-908 -7198)"/></svg>