<svg xmlns="http://www.w3.org/2000/svg" width="180" height="197" viewBox="0 0 180 197"><g fill="#2E2A25" opacity=".051"><path d="M70.925 127.209c8.475-3.966 11.78-13.31 5.687-21.284-6.4 2.996-12.231 10.776-5.687 21.284zm39.138 0c6.54-10.508.713-18.288-5.686-21.284-6.093 7.974-2.79 17.318 5.686 21.284z"/><path d="M170.062 67.105c-5.792-7.834-15.436-14.783-24.788-17.563-12.695-3.779-26.587-5.202-39.708-3.193-1.864.286-7.817 1.106-11.797 2.575-.193-2.806-.2-9.241.197-11.137 1.291-6.132 7.809-12.328 16.375-17.911l-3.988-5.307c-7.69 5.012-13.117 10.492-16.242 16.359C84.824 10.24 69.794 1.759 51.641 0c-.82 21.325 13.976 39.424 35.456 41.867a113.77 113.77 0 0 0-.088 7.359c-3.935-1.66-10.589-2.575-12.578-2.878-13.121-2.01-27.011-.586-39.71 3.192-9.352 2.78-18.995 9.731-24.786 17.563C1.603 78.375.092 92.15.002 105.765c-.181 27.547 12.116 56.96 32.568 75.537 9.864 8.96 22.474 15.592 36.04 15.698 2.337.019 21.392-.655 21.392-3.293 0 2.638 19.05 3.31 21.388 3.293 13.566-.106 26.176-6.738 36.04-15.698 20.455-18.577 32.75-47.99 32.568-75.537-.095-13.615-1.606-27.388-9.936-38.66zm-80.717 76.2a19.76 19.76 0 0 1-6.292 1.043c-.338.024-.673.034-1.012.034-13.632 0-25.452-19.272-24.03-34.882 0-5.658 1.744-9.8 4.625-12.758 2.042-1.74 4.336-3.355 6.603-4.244l.017-.01c.135-.043 4.785-1.592 10.45-1.592 3.104 0 6.507.477 9.64 1.907v50.502h-.001zm0-56.12c-2.91-1.002-6.13-1.529-9.64-1.529-6.401 0-11.555 1.68-12.123 1.87l-.34.113-.134.066c-2.455.997-5.112 2.7-7.866 5.048l-.186.157-.169.175c-4.008 4.113-6.062 9.556-6.111 16.178-.897 10.7 3.408 22.95 11.006 31.278 5.344 5.857 11.83 9.082 18.26 9.082.395 0 .795-.011 1.19-.035a25.021 25.021 0 0 0 6.113-.819v22.752c-2.302 1.358-3.077 8.57-6.397 11.889-2.56 2.562-4.601 3.586-5.581 3.973-40.363 5.424-68.175-44.648-68.112-81.056.016-9.277.486-19.01 4.472-27.533 4.363-9.328 13.202-16.32 22.68-20.075C53.45 53.2 73.13 52.781 89.345 60.877v26.308zm1.309 5.618c3.134-1.43 6.535-1.907 9.636-1.907 5.664 0 10.317 1.549 10.449 1.592l.019.01c2.268.89 4.562 2.504 6.604 4.244 2.88 2.959 4.622 7.1 4.622 12.758 1.422 15.611-10.395 34.882-24.028 34.882a14.8 14.8 0 0 1-1.011-.034 19.76 19.76 0 0 1-6.291-1.043V92.803zm11.86 94.567c-.99-.398-3.014-1.427-5.545-3.96-3.279-3.28-4.078-10.346-6.315-11.832V148.77c1.998.518 4.042.8 6.111.817.397.024.794.035 1.19.035 6.433 0 12.915-3.227 18.26-9.084 7.594-8.328 11.9-20.576 11.006-31.276-.05-6.622-2.105-12.062-6.11-16.178l-.172-.175-.184-.159c-2.745-2.335-5.385-4.029-7.852-5.037l-.007-.003-.216-.088-.138-.053-.138-.047c-.57-.19-5.746-1.867-12.116-1.867-3.508 0-6.724.527-9.636 1.527V60.875c16.211-8.094 35.89-7.673 52.934-2.156 9.477 3.755 18.316 10.747 22.68 20.075 3.985 8.525 4.455 18.256 4.471 27.533.065 36.442-27.8 86.578-68.223 81.043z"/></g></svg>